<svg width="30" height="30" viewBox="0 0 30 30" fill="none" xmlns="http://www.w3.org/2000/svg">
<path d="M14.9999 8.7099C15.5337 8.7099 15.9677 9.14392 15.9677 9.67764H16.9354C16.9354 8.77865 16.3166 8.02709 15.4838 7.81091V6.77441H14.5161V7.81091C13.6832 8.02709 13.0645 8.77865 13.0645 9.67764C13.0645 10.7451 13.9325 11.6131 14.9999 11.6131C15.5337 11.6131 15.9677 12.0471 15.9677 12.5809C15.9677 13.1146 15.5337 13.5486 14.9999 13.5486C14.4662 13.5486 14.0322 13.1146 14.0322 12.5809H13.0645C13.0645 13.4799 13.6832 14.2314 14.5161 14.4476V15.4841H15.4838V14.4476C16.3166 14.2314 16.9354 13.4799 16.9354 12.5809C16.9354 11.5134 16.0674 10.6454 14.9999 10.6454C14.4662 10.6454 14.0322 10.2114 14.0322 9.67764C14.0322 9.14392 14.4662 8.7099 14.9999 8.7099Z" fill="black"/>
<path d="M29.9999 12.5806V8.70968H27.0967V0H7.52664L2.90316 5.13688V8.70968H-6.10352e-05V12.5806H2.90316V14.2215L1.05274 13.5484H-6.10352e-05V24.1935H4.22649L4.48 23.3815L6.52487 24.6082L7.8808 24.9614C7.7922 25.1559 7.74187 25.3664 7.74187 25.5866C7.74187 26.4014 8.39113 27.063 9.19892 27.0913C9.22727 27.8991 9.88929 28.5484 10.7037 28.5484C10.8759 28.5484 11.0444 28.5129 11.205 28.456C11.3981 29.0682 11.9642 29.5161 12.6392 29.5161C12.9614 29.5161 13.2745 29.4063 13.5323 29.2165L13.8904 29.5747C14.1643 29.849 14.5291 30 14.9168 30H14.9999C15.6265 30 16.1565 29.5988 16.3592 29.0419C16.6321 29.3366 17.0139 29.5161 17.4193 29.5161C18.091 29.5161 18.6521 29.0554 18.8173 28.4352C18.9871 28.5035 19.1674 28.5484 19.3548 28.5484C20.0265 28.5484 20.5876 28.0877 20.7528 27.4675C20.9226 27.5358 21.1029 27.5806 21.2903 27.5806C22.0905 27.5806 22.7419 26.9293 22.7419 26.129V25.9679C22.7419 25.6558 22.6389 25.3465 22.451 25.097L22.2908 24.8834L24.0874 23.446L24.3218 24.1935H29.9999V13.5484H29.0322L27.0967 14.096V12.5806H29.9999ZM7.74187 1.20731V4.83871H4.47338L7.74187 1.20731ZM3.87091 5.80645H8.70962V0.967742H26.129V8.70968H23.2257V6.83751L17.5145 10.6452L23.2257 14.4528V12.5806H26.129V14.3701L21.6484 15.6382L22.0673 16.979L16.0345 17.3811C15.5835 17.4111 15.15 17.5287 14.745 17.731L13.7095 18.2486C13.2497 18.0256 12.7472 17.9032 12.2316 17.9032H8.82373L6.54779 16.7651L6.88967 15.6712L3.87091 14.5733V12.5806H6.77413V14.4528L12.4854 10.6452L6.77413 6.83751V8.70968H3.87091V5.80645ZM0.967681 11.6129V9.67742H7.74187V8.64636L10.7403 10.6452L7.74187 12.644V11.6129H0.967681ZM3.51533 23.2258H0.967681V14.5471L5.69086 16.2643L3.51533 23.2258ZM6.96149 23.7416L4.77769 22.4312L6.256 17.701L8.5955 18.871H12.2321C12.686 18.871 13.1292 18.9983 13.5141 19.2386L16.1454 20.883C16.337 21.0028 16.4516 21.21 16.4516 21.4363V21.6053C16.4516 21.9653 16.1588 22.2581 15.7983 22.2581C15.6801 22.2581 15.5646 22.2262 15.463 22.1652L13.6457 21.0751C12.9208 20.6411 11.942 20.762 11.3442 21.3586L8.56101 24.1418L6.96149 23.7416ZM15.4838 28.5484C15.4838 28.8149 15.2669 29.0323 14.9999 29.0323H14.9168C14.7894 29.0323 14.6647 28.9805 14.5747 28.8905L14.174 28.4898C14.0825 28.3984 14.0322 28.2764 14.0322 28.1472V28.0645C14.0322 27.798 14.2491 27.5806 14.5161 27.5806H14.5992C14.7266 27.5806 14.8513 27.6324 14.9413 27.7224L15.3421 28.1231C15.4335 28.2145 15.4838 28.3365 15.4838 28.4657V28.5484ZM17.9032 28.0645C17.9032 28.331 17.6863 28.5484 17.4193 28.5484C17.2678 28.5484 17.1233 28.4763 17.0323 28.3549L16.0645 27.0644C16.0019 26.9812 15.9677 26.878 15.9677 26.774V26.6129C15.9677 26.3464 16.1846 26.129 16.4516 26.129C16.603 26.129 16.7476 26.2011 16.8386 26.3225L17.8063 27.613C17.8689 27.6962 17.9032 27.7994 17.9032 27.9034V28.0645ZM19.8386 27.0968C19.8386 27.3633 19.6218 27.5806 19.3548 27.5806C19.2033 27.5806 19.0587 27.5086 18.9678 27.3871L18 26.0967C17.9374 26.0135 17.9032 25.9102 17.9032 25.8063V25.6452C17.9032 25.3787 18.1201 25.1613 18.387 25.1613C18.5385 25.1613 18.6831 25.2334 18.774 25.3548L19.7418 26.6453C19.8044 26.7284 19.8386 26.8317 19.8386 26.9356V27.0968ZM21.7741 26.129C21.7741 26.3955 21.5572 26.6129 21.2903 26.6129C21.1388 26.6129 20.9942 26.5408 20.9033 26.4194L19.9355 25.1289C19.8729 25.0458 19.8386 24.9425 19.8386 24.8386V24.6774C19.8386 24.4109 20.0555 24.1935 20.3225 24.1935C20.474 24.1935 20.6186 24.2656 20.7095 24.387L21.6773 25.6775C21.7399 25.7607 21.7741 25.8639 21.7741 25.9679V26.129ZM21.7103 24.109L21.4838 23.8065C21.2113 23.4432 20.7773 23.2258 20.3225 23.2258C19.6508 23.2258 19.0897 23.6865 18.9245 24.3067C18.7547 24.2384 18.5744 24.1935 18.387 24.1935C17.7153 24.1935 17.1542 24.6543 16.9891 25.2745C16.8192 25.2062 16.6389 25.1613 16.4516 25.1613C15.6513 25.1613 14.9999 25.8127 14.9999 26.6129V26.6757C14.8707 26.6387 14.7377 26.6129 14.5992 26.6129H14.5161C13.7158 26.6129 13.0645 27.2643 13.0645 28.0645V28.1472C13.0645 28.2091 13.0746 28.2691 13.0824 28.3301L13.0229 28.3896C12.9218 28.4903 12.7819 28.5484 12.6392 28.5484C12.3401 28.5484 12.0967 28.305 12.0967 28.0059C12.0967 27.8609 12.1529 27.7248 12.2555 27.6222L14.3743 25.5034L13.6901 24.8192L11.0874 27.4219C10.9863 27.5225 10.8464 27.5806 10.7037 27.5806C10.4046 27.5806 10.1612 27.3373 10.1612 27.0382C10.1612 26.8931 10.2175 26.757 10.32 26.6545L12.9227 24.0518L12.2385 23.3676L9.63578 25.9703C9.53465 26.0709 9.39478 26.129 9.25208 26.129C8.95297 26.129 8.70962 25.8857 8.70962 25.5866C8.70962 25.4415 8.76585 25.3054 8.86839 25.2029L12.0284 22.0428C12.3188 21.7525 12.7958 21.6934 13.1476 21.9048L14.9645 22.995C15.2168 23.1459 15.5051 23.2258 15.7983 23.2258C16.6921 23.2258 17.4193 22.4991 17.4193 21.6053V21.4363C17.4193 20.8738 17.1344 20.3599 16.6576 20.0622L14.6975 18.8377L15.1776 18.5976C15.4668 18.453 15.7761 18.3687 16.0983 18.3474L22.3641 17.9299L23.7779 22.4551L21.7103 24.109ZM29.0322 14.5355V23.2258H25.0329L22.8676 16.2969L29.0322 14.5355ZM22.258 11.6129V12.644L19.2596 10.6452L22.258 8.64636V9.67742H29.0322V11.6129H22.258Z" fill="black"/>
<path d="M9.67735 1.93555H25.1612V2.90329H9.67735V1.93555Z" fill="black"/>
<path d="M9.67735 3.87109H25.1612V4.83883H9.67735V3.87109Z" fill="black"/>
</svg>
