<svg width="22" height="22" viewBox="0 0 22 22" fill="none" xmlns="http://www.w3.org/2000/svg">
<g clip-path="url(#clip0)">
<path d="M12.2152 11.001L21.7481 1.46807C22.0837 1.13244 22.0837 0.588283 21.7481 0.252698C21.4124 -0.0828875 20.8683 -0.0829305 20.5327 0.252698L10.9997 9.78564L1.46685 0.252698C1.13122 -0.0829305 0.587062 -0.0829305 0.251477 0.252698C-0.0841083 0.588326 -0.0841512 1.13248 0.251477 1.46807L9.78438 11.001L0.251477 20.5339C-0.0841512 20.8695 -0.0841512 21.4137 0.251477 21.7493C0.41927 21.9171 0.639226 22.0009 0.859183 22.0009C1.07914 22.0009 1.29905 21.9171 1.46689 21.7493L10.9997 12.2164L20.5326 21.7493C20.7004 21.9171 20.9204 22.0009 21.1404 22.0009C21.3603 22.0009 21.5802 21.9171 21.7481 21.7493C22.0837 21.4136 22.0837 20.8695 21.7481 20.5339L12.2152 11.001Z" fill="#929292"/>
</g>
<defs>
<clipPath id="clip0">
<rect width="22" height="22" fill="white"/>
</clipPath>
</defs>
</svg>
