<svg width="30px" height="30px" viewBox="0 0 30 30" fill="none" xmlns="http://www.w3.org/2000/svg">
<path d="M9.76234 19.3996H9.76372C9.76488 19.3996 9.76604 19.3994 9.76719 19.3994H25.8615C26.2577 19.3994 26.6061 19.1392 26.715 18.762L30.2658 6.45729C30.3423 6.19202 30.2887 5.90683 30.1211 5.68665C29.9532 5.46646 29.6909 5.33691 29.4123 5.33691H7.71509L7.08053 2.50954C6.99014 2.10739 6.62997 1.82129 6.21387 1.82129H0.887695C0.397382 1.82129 0 2.21474 0 2.7002C0 3.18565 0.397382 3.5791 0.887695 3.5791H5.50186C5.61421 4.08012 8.53852 17.1095 8.70681 17.859C7.7634 18.2651 7.10156 19.1964 7.10156 20.2783C7.10156 21.7322 8.29625 22.915 9.76465 22.915H25.8615C26.3518 22.915 26.7492 22.5216 26.7492 22.0361C26.7492 21.5507 26.3518 21.1572 25.8615 21.1572H9.76465C9.27526 21.1572 8.87695 20.7629 8.87695 20.2783C8.87695 19.7945 9.27387 19.4008 9.76234 19.3996V19.3996ZM28.2354 7.09473L25.1918 17.6416H10.4767L8.10947 7.09473H28.2354Z" fill="white"/>
<path d="M8.87695 25.5469C8.87695 27.0007 10.0716 28.1836 11.54 28.1836C13.0084 28.1836 14.2031 27.0007 14.2031 25.5469C14.2031 24.093 13.0084 22.9102 11.54 22.9102C10.0716 22.9102 8.87695 24.093 8.87695 25.5469ZM11.54 24.668C12.0294 24.668 12.4277 25.0623 12.4277 25.5469C12.4277 26.0314 12.0294 26.4258 11.54 26.4258C11.0507 26.4258 10.6523 26.0314 10.6523 25.5469C10.6523 25.0623 11.0507 24.668 11.54 24.668Z" fill="white"/>
<path d="M21.4231 25.5469C21.4231 27.0007 22.6178 28.1836 24.0862 28.1836C25.5546 28.1836 26.7493 27.0007 26.7493 25.5469C26.7493 24.093 25.5546 22.9102 24.0862 22.9102C22.6178 22.9102 21.4231 24.093 21.4231 25.5469ZM24.0862 24.668C24.5756 24.668 24.9739 25.0623 24.9739 25.5469C24.9739 26.0314 24.5756 26.4258 24.0862 26.4258C23.5968 26.4258 23.1985 26.0314 23.1985 25.5469C23.1985 25.0623 23.5968 24.668 24.0862 24.668Z" fill="white"/>
</svg>
