<svg width="24" height="24" viewBox="0 0 24 24" fill="none" xmlns="http://www.w3.org/2000/svg">
<path d="M0.444444 3.99978H1.77778V5.77756C1.77778 6.02334 1.97644 6.22201 2.22222 6.22201H7.55556C7.80133 6.22201 8 6.02334 8 5.77756V3.99978H23.5556C23.8013 3.99978 24 3.80112 24 3.55534C24 3.30956 23.8013 3.11089 23.5556 3.11089H8V1.33312C8 1.08734 7.80133 0.888672 7.55556 0.888672H2.22222C1.97644 0.888672 1.77778 1.08734 1.77778 1.33312V3.11089H0.444444C0.198667 3.11089 0 3.30956 0 3.55534C0 3.80112 0.198667 3.99978 0.444444 3.99978ZM2.66667 1.77756H7.11111V5.33312H2.66667V1.77756Z" fill="#252525"/>
<path d="M23.5556 11.5552H15.1111V9.77745C15.1111 9.53167 14.9124 9.33301 14.6667 9.33301H9.33333C9.08756 9.33301 8.88889 9.53167 8.88889 9.77745V11.5552H0.444444C0.198667 11.5552 0 11.7539 0 11.9997C0 12.2455 0.198667 12.4441 0.444444 12.4441H8.88889V14.2219C8.88889 14.4677 9.08756 14.6663 9.33333 14.6663H14.6667C14.9124 14.6663 15.1111 14.4677 15.1111 14.2219V12.4441H23.5556C23.8013 12.4441 24 12.2455 24 11.9997C24 11.7539 23.8013 11.5552 23.5556 11.5552ZM14.2222 13.7775H9.77778V10.2219H14.2222V13.7775Z" fill="#252525"/>
<path d="M23.5556 19.9996H22.2222V18.2218C22.2222 17.976 22.0236 17.7773 21.7778 17.7773H16.4444C16.1987 17.7773 16 17.976 16 18.2218V19.9996H0.444444C0.198667 19.9996 0 20.1982 0 20.444C0 20.6898 0.198667 20.8885 0.444444 20.8885H16V22.6662C16 22.912 16.1987 23.1107 16.4444 23.1107H21.7778C22.0236 23.1107 22.2222 22.912 22.2222 22.6662V20.8885H23.5556C23.8013 20.8885 24 20.6898 24 20.444C24 20.1982 23.8013 19.9996 23.5556 19.9996ZM21.3333 22.2218H16.8889V18.6662H21.3333V22.2218Z" fill="#252525"/>
</svg>
