<svg width="30" height="26" viewBox="0 0 30 26" fill="none" xmlns="http://www.w3.org/2000/svg">
<path d="M15.995 17.7487H23.9925C24.2924 17.7487 24.4923 17.5488 24.4923 17.2489V12.7503C24.4923 12.4504 24.2924 12.2505 23.9925 12.2505H15.995C15.6951 12.2505 15.4952 12.4504 15.4952 12.7503V17.2489C15.4951 17.5488 15.6951 17.7487 15.995 17.7487ZM16.4948 13.2501H23.4927V16.749H16.4948V13.2501Z" fill="#252525"/>
<path d="M2.49915 11.2506H6.49792C6.79783 11.2506 6.99775 11.0507 6.99775 10.7508C6.99775 10.4509 6.79783 10.251 6.49792 10.251H2.49915C2.19925 10.251 1.99933 10.4509 1.99933 10.7508C1.99933 11.0507 2.19925 11.2506 2.49915 11.2506Z" fill="#252525"/>
<path d="M8.49735 11.2506H12.4961C12.796 11.2506 12.9959 11.0507 12.9959 10.7508C12.9959 10.4509 12.796 10.251 12.4961 10.251H8.49735C8.19745 10.251 7.99753 10.4509 7.99753 10.7508C7.99753 11.0507 8.19745 11.2506 8.49735 11.2506Z" fill="#252525"/>
<path d="M2.49915 13.2501H8.9971C9.29701 13.2501 9.49693 13.0502 9.49693 12.7503C9.49693 12.4504 9.29701 12.2505 8.9971 12.2505H2.49915C2.19925 12.2505 1.99933 12.4504 1.99933 12.7503C1.99933 13.0502 2.19925 13.2501 2.49915 13.2501Z" fill="#252525"/>
<path d="M12.4961 12.2505H10.9965C10.6966 12.2505 10.4967 12.4504 10.4967 12.7503C10.4967 13.0502 10.6966 13.2501 10.9965 13.2501H12.4961C12.796 13.2501 12.9959 13.0502 12.9959 12.7503C12.9959 12.4504 12.796 12.2505 12.4961 12.2505Z" fill="#252525"/>
<path d="M29.5407 6.05223C29.1908 5.60237 28.741 5.35243 28.1911 5.30247L26.9915 5.15708V3.75291V2.75326C26.9915 1.65363 26.0918 0.753906 24.9921 0.753906H1.99929C0.899658 0.753848 -6.10352e-05 1.65357 -6.10352e-05 2.75326V3.75297V7.75174V18.7483C-6.10352e-05 19.6511 0.606605 20.4187 1.43228 20.6648C1.4071 21.6759 2.17215 22.5537 3.19898 22.6471L26.2918 25.2462C26.3417 25.2462 26.4417 25.2462 26.4917 25.2462C27.4914 25.2462 28.3911 24.4965 28.491 23.5468L29.9906 7.5018C30.0405 7.00192 29.8906 6.45207 29.5407 6.05223ZM0.999646 4.25279H25.9919V5.55241V7.25186H0.999646V4.25279ZM1.99929 1.75355H24.9921C25.5419 1.75355 25.9918 2.20341 25.9918 2.75326V3.25309H0.999646V2.75326C0.999646 2.20341 1.44951 1.75355 1.99929 1.75355ZM0.999646 18.7482V8.25151H25.9919V18.7482C25.9919 19.2981 25.542 19.7479 24.9921 19.7479H2.04932H1.99935C1.44951 19.7479 0.999646 19.2981 0.999646 18.7482ZM28.9909 7.30182L27.4913 23.3468C27.4414 23.8967 26.9415 24.2965 26.3917 24.2465L3.34887 21.6474C2.84905 21.5974 2.49912 21.1975 2.44915 20.7476H24.9921C26.0917 20.7476 26.9914 19.8479 26.9914 18.7483V7.75168V6.1022L28.1411 6.20218C28.391 6.20218 28.6409 6.35214 28.7909 6.55206C28.9409 6.75197 29.0409 7.05188 28.9909 7.30182Z" fill="#252525"/>
</svg>
