<svg width="14" height="12" viewBox="0 0 14 12" fill="none" xmlns="http://www.w3.org/2000/svg">
<path d="M13.6572 0.743051C13.4287 0.514602 13.1541 0.400391 12.8333 0.400391H1.1666C0.845773 0.400391 0.571201 0.514577 0.342599 0.743051C0.114125 0.97155 -6.10352e-05 1.24612 -6.10352e-05 1.56697V10.4335C-6.10352e-05 10.7544 0.114125 11.029 0.342599 11.2575C0.571201 11.486 0.845773 11.6002 1.1666 11.6002H12.8333C13.1541 11.6002 13.4287 11.486 13.6572 11.2575C13.8856 11.0291 13.9999 10.7545 13.9999 10.4335V1.56697C13.9999 1.24612 13.8856 0.97155 13.6572 0.743051ZM13.0665 10.4337C13.0665 10.497 13.0434 10.5515 12.9973 10.5978C12.9511 10.6438 12.8964 10.6669 12.8333 10.6669H1.1666C1.10344 10.6669 1.04873 10.6438 1.00256 10.5976C0.956409 10.5513 0.933296 10.4968 0.933296 10.4335V6.0003H13.0665V10.4337H13.0665ZM13.0665 3.20021H0.933271V1.56687C0.933271 1.50369 0.956307 1.44911 1.00253 1.40283C1.04873 1.35678 1.10344 1.33367 1.16657 1.33367H12.8333C12.8964 1.33367 12.9511 1.35668 12.9972 1.40283C13.0434 1.44911 13.0665 1.50369 13.0665 1.56687V3.20021H13.0665Z" fill="black"/>
<path d="M3.73356 8.80029H1.86691V9.7337H3.73356V8.80029Z" fill="black"/>
<path d="M7.4666 8.80029H4.66663V9.7337H7.4666V8.80029Z" fill="black"/>
</svg>
