<svg width="24" height="24" viewBox="0 0 24 24" fill="none" xmlns="http://www.w3.org/2000/svg">
<path d="M14.25 8.625C14.4571 8.625 14.625 8.45711 14.625 8.25C14.625 8.04289 14.4571 7.875 14.25 7.875C14.0429 7.875 13.875 8.04289 13.875 8.25C13.875 8.45711 14.0429 8.625 14.25 8.625Z" fill="#252525"/>
<path d="M9.75 8.625C9.95711 8.625 10.125 8.45711 10.125 8.25C10.125 8.04289 9.95711 7.875 9.75 7.875C9.54289 7.875 9.375 8.04289 9.375 8.25C9.375 8.45711 9.54289 8.625 9.75 8.625Z" fill="#252525"/>
<path d="M18.4211 17.733L14.574 16.1591C14.1495 15.9855 13.875 15.5767 13.875 15.1178V14.8485C15.1388 13.9755 16.0785 12.7102 16.5446 11.25H18C18.6203 11.25 19.125 10.7452 19.125 10.125V8.625C19.125 8.13675 18.8104 7.72425 18.375 7.569V6.75C18.375 3.23475 15.5153 0.375 12 0.375C8.48475 0.375 5.625 3.23475 5.625 6.75V7.569C5.18963 7.72425 4.875 8.13675 4.875 8.625V9.75V10.125V11.25C4.875 12.2839 5.71613 13.125 6.75 13.125H8.3865C8.85563 13.794 9.44362 14.3779 10.125 14.8485V15.1178C10.125 15.5767 9.8505 15.9851 9.426 16.1588L5.57888 17.7326C3.32887 18.6536 1.875 20.8193 1.875 23.25V23.625H5.625H18.375H22.125V23.25C22.125 20.8193 20.6711 18.6536 18.4211 17.733ZM8.625 17.2972L8.64862 17.2875L9.8625 20.625H9C8.79338 20.625 8.625 20.457 8.625 20.25V17.2972ZM12 18.5858L13.6991 20.625H10.3005L12 18.5858ZM15.375 17.2972V20.25C15.375 20.457 15.2066 20.625 15 20.625H14.1375L15.3514 17.2875L15.375 17.2972ZM14.6565 17.0033L13.7456 19.5086L12.5408 18.0634L14.2084 16.8127C14.2361 16.8259 14.2616 16.842 14.2901 16.8536L14.6565 17.0033ZM18.375 10.125C18.375 10.3316 18.2066 10.5 18 10.5H16.7347C16.8236 10.0553 16.875 9.5985 16.875 9.13163V8.25H18C18.2066 8.25 18.375 8.41838 18.375 8.625V10.125ZM12 1.125C15.1016 1.125 17.625 3.64838 17.625 6.75V7.5H16.875V5.48025L16.3819 5.6445C16.3594 5.65163 14.1596 6.375 12 6.375C9.84037 6.375 7.64062 5.65162 7.6185 5.64412L7.125 5.47988V7.5H6.375V6.75C6.375 3.64838 8.89838 1.125 12 1.125ZM5.625 8.625C5.625 8.41838 5.79338 8.25 6 8.25H7.125V9.13163C7.125 9.5985 7.17638 10.0553 7.26525 10.5H6C5.79338 10.5 5.625 10.3316 5.625 10.125V9.75V8.625ZM6.75 12.375C6.12975 12.375 5.625 11.8702 5.625 11.25V11.181C5.74275 11.223 5.868 11.25 6 11.25H7.45538C7.57987 11.6404 7.73925 12.0161 7.92863 12.375H6.75ZM9.33038 13.125H10.1944C10.3496 13.5604 10.7621 13.875 11.2504 13.875H12.7504C13.3706 13.875 13.8754 13.3702 13.8754 12.75C13.8754 12.1298 13.3706 11.625 12.7504 11.625H11.2504C10.7621 11.625 10.3496 11.9396 10.1944 12.375H8.79037C8.20612 11.4218 7.875 10.3073 7.875 9.13163V6.50437C8.67375 6.72825 10.3249 7.125 12 7.125C13.6751 7.125 15.3263 6.72825 16.125 6.50437V9.13163C16.125 11.7653 14.4727 14.0993 12 14.9783C10.9354 14.5999 10.0245 13.9508 9.33038 13.125ZM10.875 12.75C10.875 12.543 11.0434 12.375 11.25 12.375H12.75C12.9566 12.375 13.125 12.543 13.125 12.75C13.125 12.957 12.9566 13.125 12.75 13.125H11.25C11.0434 13.125 10.875 12.957 10.875 12.75ZM11.8815 15.7305L12 15.7703L12.1185 15.7309C12.4736 15.6124 12.8141 15.4676 13.1381 15.2989C13.1756 15.6923 13.3324 16.0552 13.5829 16.3444L12 17.5312L10.4167 16.344C10.6672 16.0549 10.824 15.6919 10.8615 15.2985C11.1855 15.4673 11.5264 15.6124 11.8815 15.7305ZM9.71025 16.8533C9.73875 16.8416 9.76425 16.8255 9.792 16.8124L11.4596 18.063L10.2548 19.5082L9.34387 17.0029L9.71025 16.8533ZM2.63812 22.875C2.77162 20.9906 3.90788 19.3376 5.625 18.5344V22.875H2.63812ZM6.375 22.875V18.2179L7.875 17.6044V20.25C7.875 20.8703 8.37975 21.375 9 21.375H15C15.6202 21.375 16.125 20.8703 16.125 20.25V17.604L17.625 18.2175V22.875H6.375ZM18.375 22.875V18.5344C20.0921 19.3376 21.2284 20.9906 21.3619 22.875H18.375Z" fill="#252525"/>
<path d="M16.4328 4.71839C16.3027 4.43414 16.1437 4.16076 15.96 3.90576L15.351 4.34376C15.5066 4.55976 15.6408 4.79076 15.7507 5.03114L16.4328 4.71839Z" fill="#252525"/>
<path d="M15.2246 3.09375C14.334 2.30775 13.1888 1.875 12 1.875V2.625C13.0061 2.625 13.9751 2.99137 14.7281 3.65625L15.2246 3.09375Z" fill="#252525"/>
</svg>
