<svg width="30" height="30" viewBox="0 0 30 30" fill="none" xmlns="http://www.w3.org/2000/svg">
<path d="M29.9999 2.04341C30.0022 1.49562 29.7908 0.981342 29.4047 0.595209C29.0186 0.209076 28.5033 -0.00197821 27.9565 1.39755e-05C27.4103 0.00229913 26.8961 0.216928 26.5086 0.60435C26.3446 0.768412 26.0462 1.12279 25.8829 1.31949C25.7115 1.52603 25.7398 1.83248 25.9464 2.00386C26.1528 2.17531 26.4593 2.14695 26.6307 1.9404C26.8864 1.63244 27.0978 1.38992 27.1959 1.29171C27.4009 1.08681 27.6724 0.973256 27.9606 0.972026C27.9622 0.972026 27.9636 0.972026 27.9652 0.972026C28.2501 0.972026 28.5171 1.08218 28.7174 1.28251C28.9188 1.4839 29.0291 1.75267 29.0279 2.03931C29.0266 2.32742 28.9131 2.59894 28.7082 2.80396C28.5247 2.98742 27.8941 3.48763 26.9907 4.11874C26.4562 3.20503 25.4651 2.58951 24.3323 2.58951H17.2153C16.2545 2.58951 15.3514 2.96363 14.672 3.6429L0.446013 17.8691C0.158376 18.1567 -6.10352e-05 18.5391 -6.10352e-05 18.9459C-6.10352e-05 19.3527 0.158376 19.7352 0.446013 20.0227L9.97728 29.554C10.2742 29.8509 10.6641 29.9993 11.0541 29.9993C11.4441 29.9993 11.8341 29.8508 12.131 29.554L26.357 15.328C27.0363 14.6486 27.4104 13.7455 27.4104 12.7847V5.66773C27.4104 5.45767 27.3892 5.25259 27.3489 5.05425C28.3772 4.34662 29.1322 3.75464 29.3955 3.49132C29.783 3.1039 29.9977 2.58968 29.9999 2.04341ZM26.4384 12.7847C26.4384 13.4858 26.1654 14.1449 25.6697 14.6405L11.4437 28.8667C11.229 29.0814 10.8794 29.0814 10.6646 28.8667L1.13338 19.3354C1.02937 19.2314 0.972009 19.0931 0.972009 18.9459C0.972009 18.7987 1.02931 18.6604 1.13338 18.5564L15.3594 4.33039C15.8552 3.83468 16.5142 3.56169 17.2153 3.56169H24.3322C25.1314 3.56169 25.8281 4.00917 26.1848 4.66671C25.6107 5.04687 24.9679 5.45111 24.2859 5.84861C24.2647 5.82529 24.2429 5.8022 24.2204 5.77964C23.4244 4.98371 22.1294 4.98371 21.3335 5.77964C20.5375 6.57558 20.5375 7.87062 21.3335 8.66656C21.7314 9.06453 22.2542 9.26345 22.7769 9.26345C23.2996 9.26345 23.8224 9.06453 24.2204 8.66656C24.7516 8.13529 24.9277 7.38183 24.7498 6.70267C25.343 6.35738 25.9126 6.00447 26.4382 5.66304C26.4383 5.66468 26.4384 5.66621 26.4384 5.66779V12.7847H26.4384ZM22.3428 7.44148C22.4282 7.61123 22.5995 7.70919 22.7774 7.70919C22.8509 7.70919 22.9254 7.69249 22.9955 7.65722C23.2804 7.5139 23.5643 7.36484 23.8454 7.21214C23.8482 7.48958 23.7445 7.76791 23.5332 7.97919C23.1162 8.39609 22.4379 8.39609 22.021 7.97919C21.6041 7.56224 21.6041 6.88396 22.021 6.46701C22.2295 6.25853 22.5033 6.15435 22.7771 6.15435C22.9939 6.15435 23.21 6.2208 23.3944 6.3514C23.1193 6.50093 22.8401 6.64736 22.5587 6.78898C22.3188 6.90951 22.2221 7.20171 22.3428 7.44148Z" fill="#252525"/>
<path d="M14.4822 9.90039C14.2138 9.90039 13.9962 10.1179 13.9962 10.3864V20.6508C13.9962 20.9192 14.2138 21.1369 14.4822 21.1369C14.7506 21.1369 14.9682 20.9192 14.9682 20.6508V10.3864C14.9682 10.1179 14.7506 9.90039 14.4822 9.90039Z" fill="#252525"/>
<path d="M12.2597 14.0751C11.4638 13.279 10.1687 13.2791 9.37289 14.075C8.57695 14.8709 8.57695 16.166 9.37289 16.9619C9.77092 17.3599 10.2936 17.5589 10.8163 17.5588C11.339 17.5588 11.8618 17.3598 12.2597 16.9619C12.6453 16.5763 12.8577 16.0637 12.8577 15.5184C12.8577 14.9732 12.6453 14.4605 12.2597 14.0751ZM11.5724 16.2745C11.1554 16.6914 10.4771 16.6914 10.0603 16.2745C9.64336 15.8575 9.64336 15.1792 10.0603 14.7623C10.2687 14.5538 10.5425 14.4496 10.8163 14.4496C11.0902 14.4496 11.364 14.5538 11.5724 14.7623C11.7744 14.9643 11.8856 15.2327 11.8856 15.5184C11.8856 15.804 11.7744 16.0725 11.5724 16.2745Z" fill="#252525"/>
<path d="M19.5913 14.075C18.7954 13.279 17.5003 13.2791 16.7045 14.075C15.9086 14.8709 15.9086 16.166 16.7045 16.9619C17.1025 17.3599 17.6252 17.5588 18.148 17.5588C18.6707 17.5588 19.1935 17.3599 19.5914 16.9619C20.3873 16.166 20.3873 14.8709 19.5913 14.075ZM18.904 16.2745C18.487 16.6914 17.8087 16.6914 17.3918 16.2745C16.975 15.8575 16.975 15.1793 17.3918 14.7623C17.6003 14.5538 17.8741 14.4496 18.1479 14.4496C18.4218 14.4496 18.6956 14.5538 18.904 14.7623C19.3209 15.1793 19.3209 15.8575 18.904 16.2745Z" fill="#252525"/>
</svg>
