<svg width="32" height="40" viewBox="0 0 32 40" fill="none" xmlns="http://www.w3.org/2000/svg">
<path d="M23.8297 14.6667H7.28127C6.91588 14.6667 6.61933 14.9647 6.61933 15.3333C6.61933 15.702 6.91588 16 7.28127 16H23.8297C24.1951 16 24.4917 15.702 24.4917 15.3333C24.4917 14.9647 24.1951 14.6667 23.8297 14.6667Z" fill="#252525"/>
<path d="M7.28127 10.6667H13.9007C14.266 10.6667 14.5626 10.3687 14.5626 10C14.5626 9.63134 14.266 9.33334 13.9007 9.33334H7.28127C6.91588 9.33334 6.61933 9.63134 6.61933 10C6.61933 10.3687 6.91588 10.6667 7.28127 10.6667Z" fill="#252525"/>
<path d="M23.8297 20H7.28127C6.91588 20 6.61933 20.298 6.61933 20.6667C6.61933 21.0353 6.91588 21.3333 7.28127 21.3333H23.8297C24.1951 21.3333 24.4917 21.0353 24.4917 20.6667C24.4917 20.298 24.1951 20 23.8297 20Z" fill="#252525"/>
<path d="M23.8297 25.3333H7.28127C6.91588 25.3333 6.61933 25.6313 6.61933 26C6.61933 26.3687 6.91588 26.6667 7.28127 26.6667H23.8297C24.1951 26.6667 24.4917 26.3687 24.4917 26C24.4917 25.6313 24.1951 25.3333 23.8297 25.3333Z" fill="#252525"/>
<path d="M23.8297 30.6667H7.28127C6.91588 30.6667 6.61933 30.9647 6.61933 31.3333C6.61933 31.702 6.91588 32 7.28127 32H23.8297C24.1951 32 24.4917 31.702 24.4917 31.3333C24.4917 30.9647 24.1951 30.6667 23.8297 30.6667Z" fill="#252525"/>
<path d="M21.456 0H-6.10352e-05V40H31.111V9.724L21.456 0ZM21.8439 2.276L28.8512 9.33333H21.8439V2.276ZM1.32382 38.6667V1.33333H20.52V10.6667H29.7872V38.6667H1.32382Z" fill="#252525"/>
</svg>
