<svg width="25" height="21" viewBox="0 0 25 21" fill="none" xmlns="http://www.w3.org/2000/svg">
<path d="M24.5689 0.586426H0.430973C0.193042 0.586426 -6.10352e-05 0.779098 -6.10352e-05 1.01746V19.983C-6.10352e-05 20.2213 0.193042 20.414 0.430973 20.414H24.5689C24.8068 20.414 24.9999 20.2213 24.9999 19.983V1.01746C24.9999 0.779098 24.8068 0.586426 24.5689 0.586426ZM24.1379 19.5519H0.862008V1.44849H24.1379V19.5519Z" fill="black"/>
<path d="M6.89649 10.1285C8.2202 10.1285 9.29693 9.05177 9.29693 7.7285C9.29693 6.40436 8.2202 5.32764 6.89649 5.32764C5.57279 5.32764 4.49606 6.40436 4.49606 7.72807C4.49606 9.05177 5.57279 10.1285 6.89649 10.1285ZM6.89649 6.18971C7.74477 6.18971 8.43486 6.88022 8.43486 7.72807C8.43486 8.57591 7.74477 9.26643 6.89649 9.26643C6.04822 9.26643 5.35813 8.57634 5.35813 7.7285C5.35813 6.88065 6.04822 6.18971 6.89649 6.18971Z" fill="black"/>
<path d="M3.01714 17.828C3.118 17.828 3.21973 17.7927 3.30162 17.7207L10.3331 11.5302L14.7736 15.9703C14.9421 16.1388 15.2146 16.1388 15.3831 15.9703C15.5516 15.8017 15.5516 15.5293 15.3831 15.3608L13.3111 13.2888L17.2684 8.95519L22.1223 13.4048C22.2977 13.5655 22.5706 13.5535 22.7314 13.378C22.8921 13.2026 22.8805 12.9298 22.7046 12.769L17.5322 8.0276C17.4477 7.95045 17.3352 7.91209 17.2219 7.91467C17.1077 7.91985 16.9999 7.97028 16.9227 8.05476L12.7012 12.6785L10.6568 10.6341C10.4956 10.4733 10.2378 10.4651 10.0671 10.6151L2.73223 17.0733C2.55335 17.2306 2.5361 17.503 2.69343 17.6819C2.77878 17.7789 2.89774 17.828 3.01714 17.828Z" fill="black"/>
</svg>
