<svg width="214" height="42" viewBox="0 0 214 42" fill="none" xmlns="http://www.w3.org/2000/svg">
<path d="M8.476 39.1689H6.955V31.8369H2.444V39.1689H0.923V30.4979H8.476V39.1689ZM13.6585 39.3249C12.8265 39.3249 12.1549 38.9826 11.6435 38.2979V41.5609H10.2785V32.8899H11.6435V33.7479C12.1462 33.0719 12.8179 32.7339 13.6585 32.7339C14.4819 32.7339 15.1492 33.0286 15.6605 33.6179C16.1805 34.2073 16.4405 35.0089 16.4405 36.0229C16.4405 37.0369 16.1805 37.8429 15.6605 38.4409C15.1492 39.0303 14.4819 39.3249 13.6585 39.3249ZM13.2555 38.1159C13.7929 38.1159 14.2219 37.9209 14.5425 37.5309C14.8632 37.1409 15.0235 36.6383 15.0235 36.0229C15.0235 35.4076 14.8632 34.9093 14.5425 34.5279C14.2219 34.1379 13.7929 33.9429 13.2555 33.9429C12.9435 33.9429 12.6359 34.0253 12.3325 34.1899C12.0292 34.3546 11.7995 34.5539 11.6435 34.7879V37.2709C11.7995 37.5049 12.0292 37.7043 12.3325 37.8689C12.6359 38.0336 12.9435 38.1159 13.2555 38.1159ZM20.6282 39.3249C19.6575 39.3249 18.8775 39.0086 18.2882 38.3759C17.6988 37.7346 17.4042 36.9503 17.4042 36.0229C17.4042 35.0956 17.6988 34.3156 18.2882 33.6829C18.8775 33.0503 19.6575 32.7339 20.6282 32.7339C21.6075 32.7339 22.3918 33.0503 22.9812 33.6829C23.5705 34.3156 23.8652 35.0956 23.8652 36.0229C23.8652 36.9589 23.5705 37.7433 22.9812 38.3759C22.3918 39.0086 21.6075 39.3249 20.6282 39.3249ZM20.6282 38.1159C21.1915 38.1159 21.6335 37.9166 21.9542 37.5179C22.2835 37.1106 22.4482 36.6123 22.4482 36.0229C22.4482 35.4423 22.2835 34.9526 21.9542 34.5539C21.6335 34.1466 21.1915 33.9429 20.6282 33.9429C20.0735 33.9429 19.6315 34.1466 19.3022 34.5539C18.9815 34.9526 18.8212 35.4423 18.8212 36.0229C18.8212 36.6123 18.9815 37.1106 19.3022 37.5179C19.6315 37.9166 20.0735 38.1159 20.6282 38.1159ZM26.5593 39.1689H25.2463V32.8899H26.6113V37.1149L29.4973 32.8899H30.8623V39.1689H29.4973V34.8269L26.5593 39.1689ZM34.897 39.3249C33.6663 39.3249 32.7043 38.9869 32.011 38.3109L32.648 37.4399C33.22 37.9513 33.9696 38.2069 34.897 38.2069C35.3736 38.2069 35.7463 38.1333 36.015 37.9859C36.2923 37.8299 36.431 37.6219 36.431 37.3619C36.431 36.8159 35.8806 36.5429 34.78 36.5429H33.441V35.4509H34.78C35.2566 35.4509 35.6293 35.3816 35.898 35.2429C36.1753 35.1043 36.314 34.9006 36.314 34.6319C36.314 34.4066 36.171 34.2203 35.885 34.0729C35.599 33.9256 35.2393 33.8519 34.806 33.8519C33.9653 33.8519 33.2936 34.1033 32.791 34.6059L32.115 33.7739C32.7823 33.0893 33.6576 32.7469 34.741 32.7469C35.6683 32.7383 36.3963 32.8899 36.925 33.2019C37.4623 33.5053 37.731 33.9213 37.731 34.4499C37.731 34.8486 37.562 35.1866 37.224 35.4639C36.8946 35.7326 36.509 35.8973 36.067 35.9579C36.509 35.9926 36.9163 36.1399 37.289 36.3999C37.6703 36.6599 37.861 37.0153 37.861 37.4659C37.861 38.0119 37.5923 38.4583 37.055 38.8049C36.5263 39.1516 35.807 39.3249 34.897 39.3249ZM43.0845 39.1689H39.2365V32.8899H42.9935C43.5742 32.8899 44.0292 33.0416 44.3585 33.3449C44.6879 33.6483 44.8525 34.0339 44.8525 34.5019C44.8525 34.8659 44.7529 35.1736 44.5535 35.4249C44.3542 35.6763 44.1029 35.8453 43.7995 35.9319C44.1375 36.0099 44.4192 36.1963 44.6445 36.4909C44.8699 36.7769 44.9825 37.1019 44.9825 37.4659C44.9825 37.9686 44.8135 38.3803 44.4755 38.7009C44.1462 39.0129 43.6825 39.1689 43.0845 39.1689ZM42.7985 37.9729C43.0412 37.9729 43.2319 37.9123 43.3705 37.7909C43.5092 37.6609 43.5785 37.4876 43.5785 37.2709C43.5785 37.0716 43.5092 36.9026 43.3705 36.7639C43.2319 36.6253 43.0412 36.5559 42.7985 36.5559H40.6015V37.9729H42.7985ZM42.7595 35.3599C42.9762 35.3599 43.1452 35.3036 43.2665 35.1909C43.3965 35.0696 43.4615 34.9179 43.4615 34.7359C43.4615 34.5366 43.3965 34.3806 43.2665 34.2679C43.1452 34.1466 42.9762 34.0859 42.7595 34.0859H40.6015V35.3599H42.7595ZM49.51 39.3249C48.5393 39.3249 47.7593 39.0086 47.17 38.3759C46.5807 37.7346 46.286 36.9503 46.286 36.0229C46.286 35.0956 46.5807 34.3156 47.17 33.6829C47.7593 33.0503 48.5393 32.7339 49.51 32.7339C50.4893 32.7339 51.2737 33.0503 51.863 33.6829C52.4523 34.3156 52.747 35.0956 52.747 36.0229C52.747 36.9589 52.4523 37.7433 51.863 38.3759C51.2737 39.0086 50.4893 39.3249 49.51 39.3249ZM49.51 38.1159C50.0733 38.1159 50.5153 37.9166 50.836 37.5179C51.1653 37.1106 51.33 36.6123 51.33 36.0229C51.33 35.4423 51.1653 34.9526 50.836 34.5539C50.5153 34.1466 50.0733 33.9429 49.51 33.9429C48.9553 33.9429 48.5133 34.1466 48.184 34.5539C47.8633 34.9526 47.703 35.4423 47.703 36.0229C47.703 36.6123 47.8633 37.1106 48.184 37.5179C48.5133 37.9166 48.9553 38.1159 49.51 38.1159ZM53.4781 40.7679V38.0379C53.7728 37.9686 53.9938 37.7996 54.1411 37.5309C54.2971 37.2536 54.4228 36.7249 54.5181 35.9449L54.8951 32.8899H59.7441V37.9729H60.4331V40.7679H59.0681V39.1689H54.8431V40.7679H53.4781ZM56.1041 34.0859L55.8831 36.1009C55.7965 36.9329 55.5191 37.5569 55.0511 37.9729H58.3791V34.0859H56.1041ZM64.4149 39.3249C63.4616 39.3249 62.6816 39.0173 62.0749 38.4019C61.4682 37.7779 61.1649 36.9849 61.1649 36.0229C61.1649 35.0696 61.4682 34.2853 62.0749 33.6699C62.6816 33.0459 63.4616 32.7339 64.4149 32.7339C65.4636 32.7339 66.2652 33.1066 66.8199 33.8519L65.9229 34.6839C65.5762 34.1899 65.0952 33.9429 64.4799 33.9429C63.9079 33.9429 63.4486 34.1379 63.1019 34.5279C62.7552 34.9093 62.5819 35.4076 62.5819 36.0229C62.5819 36.6383 62.7552 37.1409 63.1019 37.5309C63.4486 37.9209 63.9079 38.1159 64.4799 38.1159C65.0779 38.1159 65.5589 37.8689 65.9229 37.3749L66.8199 38.2069C66.2652 38.9523 65.4636 39.3249 64.4149 39.3249ZM70.5258 39.1689H69.1608V34.0859H67.3668V32.8899H72.3328V34.0859H70.5258V39.1689ZM77.2984 39.1689H73.4504V32.8899H77.2074C77.7881 32.8899 78.2431 33.0416 78.5724 33.3449C78.9017 33.6483 79.0664 34.0339 79.0664 34.5019C79.0664 34.8659 78.9667 35.1736 78.7674 35.4249C78.5681 35.6763 78.3167 35.8453 78.0134 35.9319C78.3514 36.0099 78.6331 36.1963 78.8584 36.4909C79.0837 36.7769 79.1964 37.1019 79.1964 37.4659C79.1964 37.9686 79.0274 38.3803 78.6894 38.7009C78.3601 39.0129 77.8964 39.1689 77.2984 39.1689ZM77.0124 37.9729C77.2551 37.9729 77.4457 37.9123 77.5844 37.7909C77.7231 37.6609 77.7924 37.4876 77.7924 37.2709C77.7924 37.0716 77.7231 36.9026 77.5844 36.7639C77.4457 36.6253 77.2551 36.5559 77.0124 36.5559H74.8154V37.9729H77.0124ZM76.9734 35.3599C77.1901 35.3599 77.3591 35.3036 77.4804 35.1909C77.6104 35.0696 77.6754 34.9179 77.6754 34.7359C77.6754 34.5366 77.6104 34.3806 77.4804 34.2679C77.3591 34.1466 77.1901 34.0859 76.9734 34.0859H74.8154V35.3599H76.9734ZM83.7239 39.3249C82.7532 39.3249 81.9732 39.0086 81.3839 38.3759C80.7945 37.7346 80.4999 36.9503 80.4999 36.0229C80.4999 35.0956 80.7945 34.3156 81.3839 33.6829C81.9732 33.0503 82.7532 32.7339 83.7239 32.7339C84.7032 32.7339 85.4875 33.0503 86.0769 33.6829C86.6662 34.3156 86.9609 35.0956 86.9609 36.0229C86.9609 36.9589 86.6662 37.7433 86.0769 38.3759C85.4875 39.0086 84.7032 39.3249 83.7239 39.3249ZM83.7239 38.1159C84.2872 38.1159 84.7292 37.9166 85.0499 37.5179C85.3792 37.1106 85.5439 36.6123 85.5439 36.0229C85.5439 35.4423 85.3792 34.9526 85.0499 34.5539C84.7292 34.1466 84.2872 33.9429 83.7239 33.9429C83.1692 33.9429 82.7272 34.1466 82.3979 34.5539C82.0772 34.9526 81.9169 35.4423 81.9169 36.0229C81.9169 36.6123 82.0772 37.1106 82.3979 37.5179C82.7272 37.9166 83.1692 38.1159 83.7239 38.1159ZM97.5569 39.1689H95.8409L93.9169 36.5819L93.0459 37.4789V39.1689H91.6809V32.8899H93.0459V35.9189L95.8149 32.8899H97.5049L94.8919 35.7369L97.5569 39.1689ZM101.294 39.3249C100.324 39.3249 99.5435 39.0086 98.9542 38.3759C98.3648 37.7346 98.0702 36.9503 98.0702 36.0229C98.0702 35.0956 98.3648 34.3156 98.9542 33.6829C99.5435 33.0503 100.324 32.7339 101.294 32.7339C102.274 32.7339 103.058 33.0503 103.647 33.6829C104.237 34.3156 104.531 35.0956 104.531 36.0229C104.531 36.9589 104.237 37.7433 103.647 38.3759C103.058 39.0086 102.274 39.3249 101.294 39.3249ZM101.294 38.1159C101.858 38.1159 102.3 37.9166 102.62 37.5179C102.95 37.1106 103.114 36.6123 103.114 36.0229C103.114 35.4423 102.95 34.9526 102.62 34.5539C102.3 34.1466 101.858 33.9429 101.294 33.9429C100.74 33.9429 100.298 34.1466 99.9682 34.5539C99.6475 34.9526 99.4872 35.4423 99.4872 36.0229C99.4872 36.6123 99.6475 37.1106 99.9682 37.5179C100.298 37.9166 100.74 38.1159 101.294 38.1159ZM108.421 39.1689H107.056V34.0859H105.262V32.8899H110.228V34.0859H108.421V39.1689ZM110.112 39.3249V38.2069C110.381 38.2069 110.593 38.0336 110.749 37.6869C110.914 37.3403 111.048 36.7596 111.152 35.9449L111.529 32.8899H116.378V39.1689H115.013V34.0859H112.738L112.517 36.1009C112.396 37.2276 112.14 38.0466 111.75 38.5579C111.36 39.0693 110.814 39.3249 110.112 39.3249ZM120.985 39.3249C120.014 39.3249 119.234 39.0086 118.645 38.3759C118.055 37.7346 117.761 36.9503 117.761 36.0229C117.761 35.0956 118.055 34.3156 118.645 33.6829C119.234 33.0503 120.014 32.7339 120.985 32.7339C121.964 32.7339 122.748 33.0503 123.338 33.6829C123.927 34.3156 124.222 35.0956 124.222 36.0229C124.222 36.9589 123.927 37.7433 123.338 38.3759C122.748 39.0086 121.964 39.3249 120.985 39.3249ZM120.985 38.1159C121.548 38.1159 121.99 37.9166 122.311 37.5179C122.64 37.1106 122.805 36.6123 122.805 36.0229C122.805 35.4423 122.64 34.9526 122.311 34.5539C121.99 34.1466 121.548 33.9429 120.985 33.9429C120.43 33.9429 119.988 34.1466 119.659 34.5539C119.338 34.9526 119.178 35.4423 119.178 36.0229C119.178 36.6123 119.338 37.1106 119.659 37.5179C119.988 37.9166 120.43 38.1159 120.985 38.1159ZM129.451 39.1689H125.603V32.8899H129.36C129.94 32.8899 130.395 33.0416 130.725 33.3449C131.054 33.6483 131.219 34.0339 131.219 34.5019C131.219 34.8659 131.119 35.1736 130.92 35.4249C130.72 35.6763 130.469 35.8453 130.166 35.9319C130.504 36.0099 130.785 36.1963 131.011 36.4909C131.236 36.7769 131.349 37.1019 131.349 37.4659C131.349 37.9686 131.18 38.3803 130.842 38.7009C130.512 39.0129 130.049 39.1689 129.451 39.1689ZM129.165 37.9729C129.407 37.9729 129.598 37.9123 129.737 37.7909C129.875 37.6609 129.945 37.4876 129.945 37.2709C129.945 37.0716 129.875 36.9026 129.737 36.7639C129.598 36.6253 129.407 36.5559 129.165 36.5559H126.968V37.9729H129.165ZM129.126 35.3599C129.342 35.3599 129.511 35.3036 129.633 35.1909C129.763 35.0696 129.828 34.9179 129.828 34.7359C129.828 34.5366 129.763 34.3806 129.633 34.2679C129.511 34.1466 129.342 34.0859 129.126 34.0859H126.968V35.3599H129.126ZM137.694 39.1689H136.381V32.8899H137.746V37.1149L140.632 32.8899H141.997V39.1689H140.632V34.8269L137.694 39.1689ZM152.985 39.1689H151.269L149.345 36.5819L148.474 37.4789V39.1689H147.109V32.8899H148.474V35.9189L151.243 32.8899H152.933L150.32 35.7369L152.985 39.1689ZM156.722 39.3249C155.751 39.3249 154.971 39.0086 154.382 38.3759C153.793 37.7346 153.498 36.9503 153.498 36.0229C153.498 35.0956 153.793 34.3156 154.382 33.6829C154.971 33.0503 155.751 32.7339 156.722 32.7339C157.701 32.7339 158.486 33.0503 159.075 33.6829C159.664 34.3156 159.959 35.0956 159.959 36.0229C159.959 36.9589 159.664 37.7433 159.075 38.3759C158.486 39.0086 157.701 39.3249 156.722 39.3249ZM156.722 38.1159C157.285 38.1159 157.727 37.9166 158.048 37.5179C158.377 37.1106 158.542 36.6123 158.542 36.0229C158.542 35.4423 158.377 34.9526 158.048 34.5539C157.727 34.1466 157.285 33.9429 156.722 33.9429C156.167 33.9429 155.725 34.1466 155.396 34.5539C155.075 34.9526 154.915 35.4423 154.915 36.0229C154.915 36.6123 155.075 37.1106 155.396 37.5179C155.725 37.9166 156.167 38.1159 156.722 38.1159ZM163.849 39.1689H162.484V34.0859H160.69V32.8899H165.656V34.0859H163.849V39.1689ZM169.673 39.3249C168.719 39.3249 167.931 39.0216 167.307 38.4149C166.691 37.7996 166.384 37.0023 166.384 36.0229C166.384 35.1043 166.683 34.3286 167.281 33.6959C167.887 33.0546 168.65 32.7339 169.569 32.7339C170.496 32.7339 171.241 33.0546 171.805 33.6959C172.377 34.3373 172.663 35.1563 172.663 36.1529V36.4779H167.814C167.866 36.9719 168.069 37.3836 168.425 37.7129C168.78 38.0423 169.244 38.2069 169.816 38.2069C170.136 38.2069 170.457 38.1463 170.778 38.0249C171.107 37.9036 171.38 37.7346 171.597 37.5179L172.221 38.4149C171.588 39.0216 170.739 39.3249 169.673 39.3249ZM171.337 35.5159C171.319 35.0826 171.159 34.6969 170.856 34.3589C170.561 34.0209 170.132 33.8519 169.569 33.8519C169.031 33.8519 168.611 34.0209 168.308 34.3589C168.004 34.6883 167.835 35.0739 167.801 35.5159H171.337ZM173.36 39.3249V38.2069C173.629 38.2069 173.841 38.0336 173.997 37.6869C174.162 37.3403 174.296 36.7596 174.4 35.9449L174.777 32.8899H179.626V39.1689H178.261V34.0859H175.986L175.765 36.1009C175.644 37.2276 175.388 38.0466 174.998 38.5579C174.608 39.0693 174.062 39.3249 173.36 39.3249ZM181.399 32.8899H182.764V35.1649H184.987C185.654 35.1649 186.165 35.3556 186.521 35.7369C186.885 36.1183 187.067 36.5949 187.067 37.1669C187.067 37.7303 186.88 38.2069 186.508 38.5969C186.144 38.9783 185.637 39.1689 184.987 39.1689H181.399V32.8899ZM184.818 36.3609H182.764V37.9729H184.818C185.086 37.9729 185.294 37.8993 185.442 37.7519C185.598 37.6046 185.676 37.4096 185.676 37.1669C185.676 36.9243 185.598 36.7293 185.442 36.5819C185.294 36.4346 185.086 36.3609 184.818 36.3609ZM189.784 39.1689H188.419V32.8899H189.784V35.3599H192.67V32.8899H194.035V39.1689H192.67V36.5559H189.784V39.1689ZM195.808 32.8899H197.173V35.1649H199.396C200.063 35.1649 200.574 35.3556 200.93 35.7369C201.294 36.1183 201.476 36.5949 201.476 37.1669C201.476 37.7303 201.289 38.2069 200.917 38.5969C200.553 38.9783 200.046 39.1689 199.396 39.1689H195.808V32.8899ZM199.227 36.3609H197.173V37.9729H199.227C199.495 37.9729 199.703 37.8993 199.851 37.7519C200.007 37.6046 200.085 37.4096 200.085 37.1669C200.085 36.9243 200.007 36.7293 199.851 36.5819C199.703 36.4346 199.495 36.3609 199.227 36.3609ZM203.79 39.1689H202.425V32.8899H203.79V39.1689ZM211.057 39.1689H209.523L207.898 36.8549L206.26 39.1689H204.739L207.04 35.9449L204.869 32.8899H206.403L207.898 35.0219L209.38 32.8899H210.914L208.743 35.9449L211.057 39.1689Z" fill="white"/>
<path d="M199.013 12.4557L188.755 0H186.557V22.2992H211.468V0H209.27L199.013 12.4557ZM188.882 20.0374V3.59972L199.013 15.8961L209.143 3.59972V20.0374H188.882Z" fill="url(#paint0_linear)"/>
<path d="M9.27712 20.7382C6.60122 20.7382 4.33944 19.7188 2.52365 17.6801L0.994568 19.1454C3.00149 21.5346 5.99595 23 9.27712 23C12.6857 23 15.712 21.5346 17.6234 19.3366C19.5029 17.1704 20.6497 14.3033 20.6497 11.5C20.6497 8.69667 19.5029 5.82964 17.6234 3.63158C15.712 1.46537 12.6857 0 9.27712 0C5.99595 0 3.00149 1.46537 0.994568 3.85457L2.52365 5.28809C4.40316 3.24931 6.63307 2.22992 9.27712 2.22992C11.7937 2.22992 13.9599 3.12188 15.712 4.90582C17.4641 6.72161 18.3561 8.91967 18.3561 11.5C18.3561 14.0485 17.4641 16.2147 15.712 18.0305C13.9599 19.8463 11.7937 20.7382 9.27712 20.7382ZM6.98349 12.5831H12.8131V10.4488H6.98349V12.5831Z" fill="white"/>
<path d="M43.8169 12.4557H27.9208V0.350415H25.5953V22.6496H27.9208V14.7175H43.8169V22.6496H46.1424V0.350415H43.8169V12.4557Z" fill="white"/>
<path d="M51.2294 0.350415V22.6496H69.7059V20.3878H53.5549V14.6537H65.5646L55.3388 2.58033H69.7059V0.350415H51.2294ZM53.5549 3.66343L61.041 12.5194H53.5549V3.66343Z" fill="white"/>
<path d="M73.5199 0.350415L83.3634 12.8379H74.5393V22.6496H76.8647V15.0997H84.9562C87.2179 15.0997 89.0337 14.3989 90.4035 12.9972C91.7415 11.6274 92.4104 9.87535 92.4104 7.80471C92.4104 5.73407 91.7415 3.95014 90.3717 2.51662C89.0019 1.0831 87.1224 0.350415 84.7969 0.350415H73.5199ZM78.139 2.58033H84.9562C86.3897 2.58033 87.6321 3.05817 88.6196 4.04571C89.6071 5.03324 90.1168 6.30748 90.1168 7.80471C90.1168 10.5125 88.4922 12.3283 86.1667 12.7424L78.139 2.58033Z" fill="white"/>
<path d="M114.865 2.61219V0.350415H96.8668V22.6496H99.1923V2.61219H114.865Z" fill="white"/>
<path d="M121.972 18.8906V0.350415H119.646V22.6496H139.939V0.350415H137.74L121.972 18.8906ZM123.565 20.3878L137.613 3.95014V20.3878H123.565Z" fill="white"/>
<path d="M144.729 22.6496H147.437L154.923 13.0291C151.228 12.4238 148.616 10.5443 148.616 7.45429C148.616 5.95706 149.157 4.74654 150.272 3.88643C151.355 3.02631 152.725 2.58033 154.35 2.58033H162.537V20.3878H157.726L156.006 22.6496H164.862V0.350415H154.318C151.706 0.350415 149.731 1.01939 148.361 2.35734C146.991 3.69529 146.29 5.38365 146.29 7.45429C146.29 10.6717 147.947 12.9335 151.291 14.2078L144.729 22.6496Z" fill="white"/>
<path d="M181.824 12.5831V10.3532H169.974V12.5831H181.824Z" fill="white"/>
<defs>
<linearGradient id="paint0_linear" x1="186.557" y1="0" x2="208.72" y2="24.7593" gradientUnits="userSpaceOnUse">
<stop stop-color="#E62817"/>
<stop offset="1" stop-color="#F26118"/>
</linearGradient>
</defs>
</svg>
