<svg width="28" height="28" viewBox="0 0 28 28" fill="none" xmlns="http://www.w3.org/2000/svg">
<g opacity="0.5">
<path d="M27.0703 25.4953L20.6281 19.0531C22.225 17.1062 23.1875 14.6125 23.1875 11.8945C23.1875 5.66016 18.1289 0.601562 11.8945 0.601562C5.65469 0.601562 0.601562 5.66016 0.601562 11.8945C0.601562 18.1289 5.65469 23.1875 11.8945 23.1875C14.6125 23.1875 17.1008 22.2305 19.0477 20.6336L25.4898 27.0703C25.9273 27.5078 26.6328 27.5078 27.0703 27.0703C27.5078 26.6383 27.5078 25.9273 27.0703 25.4953ZM11.8945 20.9398C6.90156 20.9398 2.84375 16.882 2.84375 11.8945C2.84375 6.90703 6.90156 2.84375 11.8945 2.84375C16.882 2.84375 20.9453 6.90703 20.9453 11.8945C20.9453 16.882 16.882 20.9398 11.8945 20.9398Z" fill="#929292"/>
</g>
</svg>
