<svg width="14" height="15" viewBox="0 0 14 15" fill="none" xmlns="http://www.w3.org/2000/svg">
<path d="M13.5352 13.2477L10.3141 10.0266C11.1125 9.05312 11.5938 7.80625 11.5938 6.44727C11.5938 3.33008 9.06445 0.800781 5.94727 0.800781C2.82734 0.800781 0.300781 3.33008 0.300781 6.44727C0.300781 9.56445 2.82734 12.0938 5.94727 12.0938C7.30625 12.0938 8.55039 11.6152 9.52383 10.8168L12.7449 14.0352C12.9637 14.2539 13.3164 14.2539 13.5352 14.0352C13.7539 13.8191 13.7539 13.4637 13.5352 13.2477ZM5.94727 10.9699C3.45078 10.9699 1.42188 8.94102 1.42188 6.44727C1.42188 3.95352 3.45078 1.92188 5.94727 1.92188C8.44102 1.92188 10.4727 3.95352 10.4727 6.44727C10.4727 8.94102 8.44102 10.9699 5.94727 10.9699Z" fill="#252525"/>
</svg>
