<svg width="10" height="14" viewBox="0 0 10 14" fill="none" xmlns="http://www.w3.org/2000/svg">
<path d="M4.99994 0C2.58387 0 0.624939 1.9585 0.624939 4.375C0.624939 5.05176 0.778747 5.69349 1.05347 6.26514C1.06884 6.29762 4.99994 14 4.99994 14L8.89899 6.36084C9.20319 5.76527 9.37494 5.0902 9.37494 4.375C9.37494 1.9585 7.41644 0 4.99994 0ZM4.99994 7C3.55028 7 2.37494 5.82422 2.37494 4.375C2.37494 2.92578 3.55028 1.75 4.99994 1.75C6.44916 1.75 7.62494 2.92578 7.62494 4.375C7.62494 5.82422 6.44916 7 4.99994 7Z" fill="#252525"/>
</svg>
