<svg width="28" height="28" viewBox="0 0 28 28" fill="none" xmlns="http://www.w3.org/2000/svg">
<path d="M14.0001 0C11.2954 0 9.09497 2.20046 9.09497 4.90509V14.5453C9.09497 17.2496 11.2954 19.4501 14.0001 19.4501C16.7047 19.4501 18.9051 17.265 18.9051 14.579V4.90509C18.9051 2.20046 16.7047 0 14.0001 0ZM16.861 14.5788C16.861 16.1375 15.5775 17.406 14.0001 17.406C12.4226 17.406 11.1388 16.1228 11.1388 14.545V4.90509C11.1388 3.3273 12.4223 2.04378 14.0001 2.04378C15.5778 2.04378 16.8614 3.3273 16.861 4.90509V14.5788Z" fill="#929292"/>
<path d="M15.0219 22.3794H12.9781V26.978H15.0219V22.3794Z" fill="#929292"/>
<path d="M16.691 25.9561H11.309C10.7446 25.9561 10.2871 26.4135 10.2871 26.9779C10.2871 27.5424 10.7446 27.9998 11.309 27.9998H16.691C17.2554 27.9998 17.7129 27.5424 17.7129 26.9779C17.7129 26.4135 17.2554 25.9561 16.691 25.9561Z" fill="#929292"/>
<path d="M21.7324 12.8423C21.1679 12.8423 20.7105 13.2997 20.7105 13.8642V14.6817C20.7105 18.3816 17.7 21.3922 14 21.3922C10.2997 21.3922 7.28951 18.3817 7.28951 14.6817V13.8642C7.28951 13.2997 6.83205 12.8423 6.26762 12.8423C5.70319 12.8423 5.24573 13.2997 5.24573 13.8642V14.6817C5.24573 19.5088 9.17289 23.436 14 23.436C18.8271 23.436 22.7543 19.5088 22.7543 14.6817V13.8642C22.7543 13.2998 22.2968 12.8423 21.7324 12.8423Z" fill="#929292"/>
<defs>
</defs>
</svg>
