<svg width="35" height="35" viewBox="0 0 35 35" fill="none" xmlns="http://www.w3.org/2000/svg">
<path d="M17.519 13.9963C19.4727 13.99 21.0287 12.4213 21.0216 10.4632C21.0138 8.50507 19.4552 6.94534 17.5008 6.94385C15.53 6.94199 13.9561 8.52965 13.9714 10.5057C13.9859 12.4563 15.5594 14.0045 17.519 13.9963Z" fill="#EE8208"/>
<path fill-rule="evenodd" clip-rule="evenodd" d="M35 0L9.37168e-06 4.49327e-07L0 35H35L35 0ZM24.6921 10.5626C24.7119 6.53346 21.5135 3.27399 17.5298 3.26394C13.5532 3.25202 10.322 6.46569 10.2986 10.4531C10.2762 14.3973 13.5052 17.6616 17.443 17.675C21.4204 17.6884 24.6709 14.4982 24.6921 10.5626ZM22.4801 22.5221C23.6581 22.0645 24.7186 21.4107 25.5995 20.5055C26.1744 19.9157 26.1807 19.174 25.7127 18.4156C25.3039 17.7498 24.5957 17.471 23.8343 17.6664C23.4426 17.7655 23.1048 17.9651 22.7895 18.206C19.6019 20.3495 15.2391 20.2888 12.0638 18.1069C11.9082 17.9993 11.7458 17.8984 11.5749 17.8183C10.6944 17.4032 9.84617 17.5976 9.34202 18.3206C8.75186 19.1662 8.8267 19.9857 9.57213 20.7021C9.72649 20.85 9.89671 20.9817 10.0664 21.113C10.1095 21.1464 10.1526 21.1798 10.1954 21.2134C11.8989 22.5463 13.8894 23.0892 16.097 23.3197C16.0391 23.3816 15.989 23.4363 15.9433 23.4862C15.9385 23.4915 15.9337 23.4968 15.9289 23.5019C15.8578 23.5796 15.7971 23.6455 15.7336 23.7088C15.4224 24.0208 15.1112 24.3328 14.8 24.6449C13.4924 25.9561 12.1847 27.2674 10.8746 28.576C10.5391 28.9111 10.2986 29.2842 10.2747 29.7727C10.2401 30.4962 10.6877 31.2152 11.3921 31.5566C12.056 31.8779 12.7355 31.777 13.3071 31.2133C14.5794 29.9589 15.8435 28.697 17.0882 27.4154C17.4002 27.0941 17.57 27.0252 17.9226 27.3946C18.7335 28.2429 19.5666 29.0708 20.4 29.899C20.8118 30.3083 21.2237 30.7176 21.633 31.1295C21.9554 31.4538 22.3188 31.6858 22.785 31.7186C23.5215 31.7692 24.2718 31.2989 24.6072 30.5822C24.9144 29.9272 24.7968 29.2291 24.2405 28.6665C23.1946 27.609 22.1437 26.5562 21.0928 25.5033C20.5016 24.911 19.9104 24.3187 19.32 23.7255C19.2312 23.6353 19.1592 23.5565 19.0442 23.4308C19.0125 23.3962 18.9777 23.3581 18.9384 23.3152C20.1462 23.1707 21.3664 22.9526 22.4801 22.5221Z" fill="#EE8208"/>
</svg>
