<svg width="25" height="25" viewBox="0 0 25 25" fill="none" xmlns="http://www.w3.org/2000/svg">
<path d="M24.5832 0H5.83325C5.60315 0 5.41659 0.186562 5.41659 0.416666V6.66665H6.24992V0.833332H24.1665V23.75C24.1706 23.9691 24.0015 24.1526 23.7828 24.1666C23.747 24.1666 23.7111 24.1637 23.6753 24.1629C23.6015 24.1608 23.5278 24.1591 23.4553 24.1516C23.449 24.1516 23.4432 24.1516 23.437 24.1491C22.0761 24.0004 21.0012 22.9265 20.8511 21.5658C20.8511 21.56 20.8491 21.5537 20.8482 21.5479C20.8381 21.4489 20.8331 21.3494 20.8332 21.25V20.4166C20.8332 20.1865 20.6467 20 20.4166 20H6.24992V12.5H5.41659V20H2.08326C1.85316 20 1.6666 20.1865 1.6666 20.4166V21.25C1.66889 23.3201 3.34649 24.9977 5.41659 24.9999H23.7915C24.4677 24.9822 25.0051 24.4263 24.9999 23.75V0.416666C24.9999 0.186562 24.8133 0 24.5832 0ZM5.41659 24.1666C3.80654 24.1648 2.50175 22.86 2.49993 21.25V20.8333H19.9999V21.25C20.0005 21.3874 20.0084 21.5246 20.0236 21.6612C20.0274 21.6975 20.0345 21.7325 20.0395 21.7683C20.0532 21.8691 20.0699 21.9695 20.092 22.0683C20.0995 22.1029 20.1091 22.137 20.1178 22.1716C20.1432 22.272 20.172 22.3708 20.2053 22.4683C20.2149 22.4962 20.2249 22.5237 20.2353 22.5516C20.2732 22.655 20.3161 22.7558 20.3632 22.8554C20.3732 22.8758 20.3824 22.897 20.3924 22.9158C20.4446 23.0214 20.502 23.124 20.5645 23.2237C20.5728 23.237 20.5803 23.2508 20.5886 23.2654C20.6566 23.3718 20.7299 23.4747 20.8082 23.5737L20.8216 23.5916C20.9125 23.7058 21.0099 23.8147 21.1132 23.9179C21.203 24.0068 21.296 24.0901 21.3924 24.1679L5.41659 24.1666Z" fill="#252525"/>
<path d="M13.7499 11.6667C13.8604 11.6667 13.9664 11.6227 14.0445 11.5446L15.7112 9.87791C15.8738 9.7152 15.8738 9.45145 15.7112 9.28875L14.0445 7.62208C13.9664 7.54396 13.8604 7.5 13.7499 7.5H2.08327C0.932697 7.5 -6.10352e-05 8.43276 -6.10352e-05 9.58333C-6.10352e-05 10.7339 0.932697 11.6667 2.08327 11.6667H13.7499ZM13.6424 8.39833L14.8274 9.58333L13.6424 10.7683L13.3462 9.58333L13.6424 8.39833ZM3.33327 8.33333H12.7999L12.5916 9.16666H4.1666V10H12.5916L12.7999 10.8333H3.33327V8.33333ZM0.833271 9.58333C0.833271 8.89297 1.3929 8.33333 2.08327 8.33333H2.49993V10.8333H2.08327C1.3929 10.8333 0.833271 10.2737 0.833271 9.58333Z" fill="#252525"/>
<path d="M9.58316 17.9167H22.0831C22.3132 17.9167 22.4998 17.7301 22.4998 17.5V5.00006C22.4997 4.76995 22.3132 4.58344 22.083 4.5835C21.9726 4.5835 21.8667 4.6274 21.7886 4.70547L9.28858 17.2054C9.12587 17.3682 9.12592 17.632 9.28868 17.7947C9.36681 17.8728 9.47269 17.9167 9.58316 17.9167ZM21.6665 6.00589V7.08338H20.8331V7.91671H21.6665V8.75004H20.8331V9.58337H21.6665V10.4167H20.8331V11.25H21.6665V12.0834H20.8331V12.9167H21.6665V13.75H20.8331V14.5834H21.6665V15.4167H20.8331V16.25H21.6665V17.0833H20.8331V16.25H19.9998V17.0833H19.1665V16.25H18.3331V17.0833H17.4998V16.25H16.6665V17.0833H15.8331V16.25H14.9998V17.0833H14.1665V16.25H13.3332V17.0833H12.4998V16.25H11.6665V17.0833H10.589L21.6665 6.00589Z" fill="#252525"/>
<path d="M15.6188 15.4164H19.5834C19.8135 15.4164 20 15.2299 20 14.9998V11.0352C20 10.8051 19.8134 10.6186 19.5833 10.6187C19.4728 10.6187 19.3669 10.6626 19.2888 10.7406L15.3242 14.7052C15.1615 14.8679 15.1615 15.1317 15.3243 15.2945C15.4024 15.3725 15.5083 15.4164 15.6188 15.4164ZM19.1667 12.0415V14.5831H16.625L19.1667 12.0415Z" fill="#252525"/>
<path d="M19.1666 2.5H10.8333V3.33333H19.1666V2.5Z" fill="#252525"/>
<path d="M20.4165 4.1665H9.58324V4.99984H20.4165V4.1665Z" fill="#252525"/>
<path d="M9.58318 12.9165H7.08319V13.7498H9.58318V12.9165Z" fill="#252525"/>
<path d="M8.74985 14.5835H7.08319V15.4168H8.74985V14.5835Z" fill="#252525"/>
</svg>
