<svg width="30" height="30" viewBox="0 0 30 30" fill="none" xmlns="http://www.w3.org/2000/svg">
<g opacity="0.5">
<path d="M17.5 1.5H12.5C12.2241 1.5 12.0001 1.724 12.0001 1.99998C12.0001 2.27596 12.2241 2.49996 12.5 2.49996H17.5C17.776 2.49996 18 2.27596 18 1.99998C18 1.724 17.776 1.5 17.5 1.5Z" fill="#252525"/>
<path d="M21 1.5H20.5C20.224 1.5 20 1.724 20 1.99998C20 2.27596 20.224 2.49996 20.5 2.49996H21C21.276 2.49996 21.5 2.27596 21.5 1.99998C21.5 1.724 21.276 1.5 21 1.5Z" fill="#252525"/>
<path d="M15.621 25.5H14.3795C13.619 25.5 13 26.119 13 26.8795V27.121C13 27.8815 13.619 28.5 14.379 28.5H15.6205C16.381 28.5 17 27.8815 17 27.121V26.8795C17 26.119 16.381 25.5 15.621 25.5ZM16 27.121C16 27.33 15.83 27.5 15.621 27.5H14.3795C14.17 27.5 14 27.33 14 27.121V26.8795C14 26.67 14.17 26.5 14.3795 26.5H15.6205C15.83 26.5 16 26.6699 16 26.8795V27.121Z" fill="#252525"/>
<path d="M21.693 0H8.30748C7.31098 0 6.49998 0.810996 6.49998 1.8075V28.1925C6.49998 29.189 7.31098 30 8.30748 30H21.6925C22.689 30 23.5 29.189 23.5 28.193V1.8075C23.5 0.810996 22.689 0 21.693 0ZM22.5 28.1925C22.5 28.6375 22.138 29 21.693 29H8.30748C7.862 29 7.5 28.6375 7.5 28.193V1.8075C7.5 1.36248 7.862 1.00002 8.30748 1.00002H21.6925C22.1379 1.00002 22.4999 1.36254 22.4999 1.8075V28.1925H22.5Z" fill="#252525"/>
<path d="M23 3H7.00003C6.72405 3 6.50005 3.224 6.50005 3.49998V24.5C6.50005 24.776 6.72405 25 7.00003 25H23.0001C23.276 25 23.5 24.776 23.5 24.5V3.49998C23.5 3.224 23.276 3 23 3ZM22.5 24H7.50001V4.00002H22.5V24Z" fill="#252525"/>
</g>
</svg>
