<svg width="14" height="10" viewBox="0 0 14 10" fill="none" xmlns="http://www.w3.org/2000/svg">
<path d="M13.4778 6.57215V5.06887C13.4778 4.49797 13.0188 4.03895 12.4479 4.03895L11.7364 3.92707L10.5172 2.091C10.4999 2.07666 10.4856 2.04223 10.4684 2.02789C10.279 1.77543 9.97781 1.60043 9.62781 1.60043H7.31551V0.960673C7.31551 0.636493 7.07453 0.372559 6.77617 0.372559H0.539283C0.240923 0.372559 -6.10352e-05 0.636493 -6.10352e-05 0.960673V4.97994V7.16026V7.30084V7.9033C-6.10352e-05 8.23608 0.269611 8.48854 0.585185 8.48854H1.42576C1.6151 9.15412 2.21756 9.62748 2.94625 9.62748C3.67494 9.62748 4.2774 9.1369 4.46674 8.48854H6.38314H9.64502C9.83436 9.15412 10.4368 9.62748 11.1655 9.62748C11.8942 9.62748 12.4967 9.1369 12.686 8.48854H13.4147C13.7475 8.48854 13.9999 8.21887 13.9999 7.9033V7.16026C13.9999 6.85616 13.7618 6.60371 13.4778 6.57215ZM2.94625 8.83567C2.50158 8.83567 2.15445 8.47133 2.15445 8.04387C2.15445 7.61641 2.51879 7.25207 2.94625 7.25207C3.39092 7.25207 3.73805 7.61641 3.73805 8.04387C3.73805 8.47133 3.39092 8.83567 2.94625 8.83567ZM8.39994 3.98731C8.35977 3.98731 8.32535 3.95576 8.32535 3.91272V2.45821C8.32535 2.41805 8.35691 2.38362 8.39994 2.38362H9.6565C9.68232 2.38362 9.70527 2.3951 9.71674 2.41518L10.695 3.86969C10.7266 3.91846 10.6922 3.98444 10.6348 3.98444H8.39994V3.98731ZM11.1655 8.83567C10.7208 8.83567 10.3737 8.47133 10.3737 8.04387C10.3737 7.61641 10.7381 7.25207 11.1655 7.25207C11.6102 7.25207 11.9573 7.61641 11.9573 8.04387C11.9573 8.47133 11.593 8.83567 11.1655 8.83567Z" fill="black"/>
</svg>
