<svg width="36" height="35" viewBox="0 0 36 35" fill="none" xmlns="http://www.w3.org/2000/svg">
<path fill-rule="evenodd" clip-rule="evenodd" d="M35.7 1.28379e-07L-3.05176e-05 0L-6.22694e-06 35H35.7V1.28379e-07ZM31.4249 24.1871C31.6818 23.0732 30.266 21.979 29.6135 21.327C28.8124 20.5268 27.2555 19.5586 27.1951 18.5633C27.1195 17.3061 29.0341 15.6118 29.611 14.8511C30.6011 13.552 31.5458 10.6228 31.5458 10.6228L25.5047 10.5857C25.5047 10.5857 23.3533 16.0045 20.834 17.2987C19.0403 16.128 21.2573 12.1121 19.9473 10.6697C19.0454 9.6768 13.4653 9.94355 13.2587 11.2229C13.8709 11.3983 14.4629 11.5786 14.7098 12.0948C15.3295 13.3692 15.1481 17.1728 14.148 17.2987C13.5333 17.3753 12.9715 16.4367 12.6163 15.9576C12.1931 15.3796 11.7824 14.8659 11.4096 14.2188C10.9712 13.4581 9.3161 10.5067 9.3161 10.5067L4.15672 10.524C4.15672 10.524 5.96553 14.9845 7.21759 17.0616C9.80232 21.3492 12.7322 25.7678 20.0279 24.6415C20.4939 23.419 20.0833 21.6259 21.3958 21.5616C22.1264 21.5295 22.663 22.3619 23.0887 22.8262C23.5573 23.3399 23.8445 23.7993 24.3332 24.1871C25.3712 25.0046 26.394 24.9675 28.1196 24.8959C29.6312 24.8366 31.1881 25.2096 31.4249 24.1871Z" fill="#4A76A8"/>
</svg>
