<svg width="129" height="37" viewBox="0 0 129 37" fill="none" xmlns="http://www.w3.org/2000/svg">
<path d="M6.63923 0.129732C3.99892 1.24718 1.09635 4.4041 0.179627 8.36672C-0.981335 13.3875 3.84997 15.5107 4.24624 14.8145C4.71264 13.9965 3.38052 13.7199 3.10632 11.1149C2.75193 7.75028 4.29898 3.99071 6.24599 2.34112C6.6079 2.03465 6.59069 2.46121 6.59069 3.25023C6.59069 4.66117 6.51358 17.3273 6.51358 19.9708C6.51358 23.5477 6.36746 24.6772 6.10503 25.7933C5.83914 26.9243 5.41166 27.6886 5.73558 27.983C6.09748 28.3123 7.64265 27.529 8.53718 26.2667C9.60985 24.7527 9.98533 22.9346 10.0527 20.96C10.1342 18.5798 10.1307 14.8029 10.1342 12.6486C10.1374 10.6728 10.1671 4.88715 10.0999 1.40903C10.0834 0.555917 7.74341 -0.339123 6.6391 0.128694L6.63923 0.129732ZM100.396 16.8694C100.311 18.7289 99.9039 20.1824 99.3987 21.2076C98.4205 23.1924 96.3908 23.8087 95.529 20.9555C95.0594 19.4002 95.0374 16.8028 95.3751 14.6324C95.7188 12.4215 96.6785 10.7517 98.2677 10.9023C99.8351 11.0511 100.569 13.0933 100.396 16.8694ZM73.9716 28.4064C73.9503 31.4962 73.4693 34.2052 72.438 34.9921C70.9752 36.1078 69.0091 35.2709 69.4162 33.0162C69.7764 31.0211 71.48 28.9836 73.9757 26.494C73.9757 26.494 73.9809 27.0618 73.9716 28.4064ZM73.5721 16.8514C73.4826 18.545 73.0483 20.2465 72.5746 21.2078C71.5966 23.1926 69.5521 23.8131 68.7049 20.9557C68.1256 19.0035 68.2643 16.4767 68.5509 14.8847C68.9229 12.819 69.8244 10.9027 71.4435 10.9027C73.0177 10.9027 73.794 12.6488 73.5721 16.8514ZM58.2642 16.8255C58.1683 18.6192 57.8222 20.1187 57.2668 21.2078C56.2619 23.1789 54.2739 23.8041 53.3971 20.9557C52.765 18.9019 52.9802 16.1013 53.2431 14.5885C53.6333 12.3435 54.6104 10.7519 56.1357 10.9027C57.7025 11.0575 58.4642 13.0933 58.2642 16.8255ZM128.416 18.9207C128.033 18.9207 127.859 19.3198 127.714 19.9918C127.212 22.3281 126.685 22.8556 126.005 22.8556C125.246 22.8556 124.563 21.6988 124.388 19.383C124.25 17.562 124.272 14.2096 124.449 10.8749C124.485 10.1897 124.298 9.51177 122.48 8.84415C121.698 8.557 120.561 8.13417 119.995 9.51572C118.396 13.4188 117.77 16.5176 117.623 17.7764C117.615 17.8416 117.536 17.8549 117.522 17.7027C117.428 16.6944 117.219 14.8623 117.193 11.013C117.188 10.2619 117.03 9.62263 116.21 9.09925C115.678 8.75964 114.063 8.15899 113.481 8.87357C112.977 9.45798 112.394 11.0307 111.787 12.895C111.294 14.4103 110.951 15.4353 110.951 15.4353C110.951 15.4353 110.958 11.3469 110.963 9.79606C110.966 9.211 110.569 9.01605 110.449 8.98071C109.911 8.82263 108.849 8.55854 108.399 8.55854C107.843 8.55854 107.707 8.87269 107.707 9.33043C107.707 9.39036 107.619 14.7132 107.619 18.4352C107.619 18.5969 107.619 18.7733 107.621 18.9607C107.313 20.6714 106.316 22.9936 105.232 22.9936C104.146 22.9936 103.634 22.0227 103.634 17.5855C103.634 14.997 103.711 13.8714 103.749 11.9992C103.771 10.9208 103.813 10.0927 103.811 9.90482C103.803 9.32854 102.817 9.03809 102.358 8.93075C101.898 8.8225 101.497 8.78057 101.185 8.79857C100.742 8.82382 100.429 9.11735 100.429 9.52107C100.429 9.73753 100.432 10.1492 100.432 10.1492C99.8616 9.24358 98.9448 8.61328 98.3349 8.43063C96.6921 7.93734 94.9779 8.37443 93.6849 10.2038C92.6572 11.6574 92.0378 13.3037 91.7939 15.669C91.6157 17.3982 91.6738 19.1517 91.9906 20.6346C91.6078 22.308 90.8972 22.9936 90.119 22.9936C88.9893 22.9936 88.1702 21.1291 88.2653 17.9047C88.3281 15.7839 88.7478 14.2955 89.2066 12.1423C89.4022 11.2244 89.2433 10.7439 88.8447 10.2833C88.479 9.86091 87.7 9.64511 86.58 9.91053C85.7823 10.0998 84.6417 10.3033 83.5982 10.4596C83.5982 10.4596 83.6611 10.2056 83.7128 9.75774C83.9842 7.40913 81.4601 7.59969 80.6548 8.34984C80.174 8.7977 79.8468 9.3259 79.7226 10.2756C79.5257 11.7827 80.7414 12.4936 80.7414 12.4936C80.3425 14.3397 79.3648 16.7513 78.3554 18.4948C77.8147 19.429 77.4011 20.1212 76.8672 20.857C76.8652 20.583 76.8637 20.3091 76.8628 20.0363C76.8505 16.1552 76.9016 13.1005 76.9242 11.9996C76.9461 10.9212 76.9889 10.1151 76.9865 9.92715C76.9805 9.50564 76.737 9.34647 76.2307 9.14493C75.783 8.96668 75.2536 8.8433 74.7045 8.80027C74.0114 8.74561 73.5939 9.11728 73.6047 9.55679C73.6068 9.63977 73.6068 10.1493 73.6068 10.1493C73.0369 9.24373 72.1202 8.61345 71.5102 8.43078C69.8674 7.9377 68.1532 8.37481 66.8602 10.204C65.8328 11.6575 65.1599 13.6972 64.9692 15.6511C64.7916 17.4721 64.8244 19.0197 65.0665 20.3233C64.8053 21.6287 64.0543 22.9937 63.2051 22.9937C62.1194 22.9937 61.5017 22.0229 61.5017 17.5857C61.5017 14.9971 61.5785 13.8716 61.6163 11.9996C61.6383 10.9212 61.6806 10.0929 61.6782 9.9052C61.6702 9.32892 60.6846 9.03846 60.2261 8.93089C59.7462 8.81871 59.3319 8.77744 59.0138 8.80114C58.5941 8.83276 58.299 9.21278 58.299 9.4962V10.1493C57.7291 9.24373 56.8124 8.61345 56.2024 8.43078C54.5596 7.9377 52.855 8.38184 51.5524 10.204C50.703 11.3921 50.0153 12.7093 49.6614 15.6252C49.5592 16.4678 49.514 17.2569 49.5199 17.9944C49.1811 20.0889 47.6851 22.5028 46.4614 22.5028C45.7453 22.5028 45.0633 21.0985 45.0633 18.1055C45.0633 14.1187 45.3073 8.44242 45.3486 7.89535C45.3486 7.89535 46.8948 7.86878 47.1942 7.86526C47.9654 7.85669 48.6639 7.87514 49.6912 7.82201C50.2064 7.79545 50.7028 5.92588 50.171 5.69449C49.93 5.58977 48.2266 5.49801 47.5514 5.48352C46.9836 5.47051 45.4029 5.35223 45.4029 5.35223C45.4029 5.35223 45.5447 1.58455 45.5777 1.18654C45.6057 0.854818 45.1812 0.684025 44.9378 0.580389C44.3459 0.32727 43.8163 0.206079 43.1886 0.0752377C42.3214 -0.105651 41.9279 0.0712857 41.8511 0.811342C41.7353 1.9345 41.6754 5.22424 41.6754 5.22424C41.039 5.22424 38.8651 5.09846 38.2285 5.09846C37.637 5.09846 36.9987 7.67032 37.8164 7.70192C38.7572 7.73881 40.3968 7.77065 41.4837 7.8038C41.4837 7.8038 41.4353 13.5736 41.4353 15.355C41.4353 15.5445 41.4369 15.727 41.4372 15.9041C40.839 19.0566 38.732 20.7595 38.732 20.7595C39.1845 18.674 38.2602 17.1078 36.5953 15.782C35.9819 15.2935 34.7709 14.3686 33.416 13.355C33.416 13.355 34.2008 12.573 34.8967 10.9998C35.3898 9.88548 35.411 8.61019 34.2008 8.32897C32.201 7.86399 30.5521 9.34893 30.0603 10.9342C29.6793 12.1623 29.8825 13.0736 30.629 14.0202C30.6835 14.0894 30.7425 14.1601 30.8036 14.2312C30.3521 15.1109 29.732 16.2953 29.2068 17.2138C27.749 19.7639 26.6477 21.781 25.8155 21.781C25.1502 21.781 25.1591 19.7332 25.1591 17.8158C25.1591 16.1628 25.2798 13.6777 25.3762 11.1048C25.4081 10.2539 24.9873 9.76912 24.2819 9.33005C23.8533 9.06332 22.9385 8.53885 22.4087 8.53885C21.6157 8.53885 19.3279 8.64795 17.1661 14.9704C16.8937 15.7673 16.3585 17.2193 16.3585 17.2193L16.4045 9.61632C16.4045 9.43807 16.3106 9.26573 16.0956 9.14783C15.7314 8.94784 14.7584 8.53885 13.8933 8.53885C13.4811 8.53885 13.2754 8.7327 13.2754 9.11908L13.2 21.014C13.2 21.9178 13.2233 22.9721 13.3116 23.4333C13.3997 23.895 13.5423 24.2706 13.719 24.4941C13.8954 24.7171 14.0995 24.8873 14.436 24.9575C14.7491 25.0227 16.4638 25.2453 16.553 24.5828C16.6597 23.7887 16.6638 22.9299 17.5642 19.7268C18.966 14.7401 20.7936 12.307 21.6528 11.4429C21.803 11.2918 21.9745 11.2828 21.9663 11.53C21.9296 12.6233 21.8006 15.3552 21.7138 17.6762C21.481 23.8873 22.5986 25.0385 24.1956 25.0385C25.4173 25.0385 27.1396 23.8111 28.9859 20.704C30.1369 18.7677 31.2544 16.8691 32.0574 15.5008C32.6169 16.0245 33.2448 16.5882 33.8723 17.1903C35.3306 18.5897 35.8094 19.9194 35.4917 21.1808C35.2487 22.1452 34.3337 23.139 32.7053 22.173C32.2306 21.8912 32.028 21.6735 31.5508 21.3558C31.2944 21.1851 30.9029 21.1341 30.6682 21.3129C30.0585 21.7777 29.7098 22.3689 29.5107 23.1008C29.317 23.8131 30.0224 24.1895 30.7537 24.5188C31.3834 24.8023 32.7368 25.0591 33.5998 25.0883C36.9627 25.202 39.6567 23.4466 41.532 18.9185C41.8677 22.8291 43.2964 25.042 45.7786 25.042C47.4381 25.042 49.102 22.8732 49.8296 20.7395C50.0385 21.6093 50.3477 22.3656 50.747 23.0051C52.6596 26.0692 56.3702 25.4097 58.234 22.8078C58.8103 22.0039 58.898 21.715 58.898 21.715C59.1698 24.1718 61.1266 25.0302 62.247 25.0302C63.5018 25.0302 64.7974 24.4304 65.7054 22.3635C65.8118 22.5878 65.928 22.802 66.0548 23.0051C67.9675 26.0692 71.678 25.4097 73.5418 22.8078C73.6297 22.6857 73.706 22.575 73.7726 22.4756L73.8273 24.0894C73.8273 24.0894 72.764 25.0756 72.1114 25.6806C69.2387 28.3453 67.0544 30.367 66.8938 32.7213C66.6875 35.7233 69.0955 36.839 70.9172 36.9852C72.8518 37.1404 74.5085 36.0599 75.5268 34.5477C76.4225 33.2166 77.0087 30.3519 76.9657 27.5225C76.9486 26.3895 76.9203 24.9489 76.8982 23.4047C77.9078 22.2192 79.0454 20.7208 80.0928 18.967C81.2343 17.0556 82.4576 14.4889 83.084 12.4913C83.084 12.4913 84.1468 12.5005 85.2811 12.4254C85.6439 12.4015 85.7482 12.4764 85.6811 12.7453C85.6001 13.0702 84.248 18.343 85.4819 21.8556C86.3266 24.2602 88.2306 25.0338 89.3594 25.0338C90.6809 25.0338 91.945 24.0248 92.6225 22.5265C92.7041 22.6936 92.7894 22.8552 92.8826 23.0044C94.7953 26.0685 98.4928 25.4051 100.37 22.8071C100.793 22.221 101.034 21.7142 101.034 21.7142C101.436 24.2569 103.392 25.0424 104.512 25.0424C105.679 25.0424 106.786 24.5587 107.685 22.4093C107.722 23.3557 107.782 24.1296 107.875 24.3735C107.932 24.5227 108.263 24.7101 108.505 24.8005C109.572 25.2007 110.661 25.0115 111.063 24.9291C111.342 24.8721 111.56 24.6457 111.59 24.0613C111.668 22.5268 111.62 19.9485 112.08 18.0324C112.852 14.8166 113.573 13.5692 113.915 12.9517C114.106 12.6057 114.322 12.5486 114.329 12.9148C114.346 13.6557 114.382 15.8316 114.681 18.7549C114.901 20.9049 115.195 22.1757 115.42 22.5779C116.064 23.728 116.859 23.7825 117.507 23.7825C117.918 23.7825 118.78 23.6674 118.703 22.9355C118.665 22.5788 118.731 20.3739 119.492 17.2058C119.99 15.1369 120.819 13.2676 121.118 12.5842C121.228 12.3321 121.279 12.5308 121.277 12.5695C121.214 13.9943 121.073 18.6546 121.647 21.2034C122.425 24.6563 124.677 25.0427 125.461 25.0427C127.136 25.0427 128.505 23.7546 128.967 20.3654C129.078 19.5498 128.913 18.9201 128.42 18.9201" fill="#262626"/>
</svg>
