<svg width="93" height="40" viewBox="0 0 93 40" fill="none" xmlns="http://www.w3.org/2000/svg">
<g clip-path="url(#clip0)">
<path d="M34.7089 32.1667H31.1882V30.1C29.8596 31.6667 28.6971 32.4333 27.4848 32.4333C26.3887 32.4333 25.658 31.9333 25.2595 30.9833C25.0602 30.4 24.8941 29.5167 24.8941 28.2V13.1667H28.4148V28.6C28.4979 29.1 28.7137 29.3 29.1621 29.3C29.8264 29.3 30.4575 28.6833 31.2048 27.6333V13.1667H34.7255V32.1667H34.7089ZM22.2536 19.3667C22.2536 17.3333 21.8716 15.8167 21.1575 14.8667C20.2275 13.5333 18.7495 13.0333 17.2548 13.0333C15.5609 13.0333 14.2655 13.5333 13.3521 14.8667C12.6214 15.8167 12.2395 17.3667 12.2395 19.3667V26.15C12.2395 28.15 12.5716 29.55 13.3023 30.4833C14.2323 31.8167 15.7602 32.4833 17.2382 32.4833C18.7329 32.4833 20.2607 31.8167 21.2239 30.4833C21.8882 29.55 22.2204 28.15 22.2204 26.15V19.3333L22.2536 19.3667ZM18.7661 26.5333C18.9321 28.4167 18.3509 29.3667 17.2714 29.3667C16.1754 29.3667 15.6107 28.4167 15.7768 26.5333V19C15.6107 17.1167 16.1754 16.2333 17.2714 16.2333C18.3509 16.2333 18.9321 17.1167 18.7661 19V26.5333ZM8.35339 21.8333V32.1667H4.65V21.8333C4.65 21.8333 0.780536 9.09999 0 6.73332H3.90268L6.51 16.6667L9.10071 6.74999H12.9868L8.33679 21.8167" fill="#111111"/>
<path d="M70.9789 16.1667C70.4309 16.1667 69.8164 16.5 69.2352 17.0334V28.4667C69.7832 29.0333 70.3977 29.3 70.9623 29.3C71.9587 29.3 72.3739 28.6 72.3739 26.7167V18.6167C72.3739 16.7334 71.9255 16.1834 70.9457 16.1834L70.9789 16.1667ZM84.8293 18.45C84.8293 16.7 84.3809 16.1834 83.2682 16.1834C82.1555 16.1834 81.6739 16.6834 81.6739 18.4334V20.5167H84.8293V18.4667" fill="#E62117"/>
<path d="M92.4521 8.80001C92.4521 8.80001 91.904 4.96668 90.2433 3.25001C88.1342 1.00001 85.7594 1.00001 84.6965 0.883344C76.941 0.333343 65.2994 0.333344 65.2994 0.333344H65.2662C65.2662 0.333344 53.6412 0.333343 45.8857 0.883344C44.8062 1.01668 42.4314 1.01668 40.3223 3.25001C38.6616 4.95001 38.1301 8.80001 38.1301 8.80001C38.1301 8.80001 37.5655 13.3333 37.5655 17.8667V22.1167C37.5655 26.65 38.1301 31.1667 38.1301 31.1667C38.1301 31.1667 38.6616 35.0333 40.3223 36.7333C42.4314 38.9667 45.2048 38.9 46.4337 39.1167C50.8678 39.55 65.2828 39.6833 65.2828 39.6833C65.2828 39.6833 76.9576 39.6833 84.7132 39.1167C85.7926 38.9833 88.1508 38.9833 90.2599 36.75C91.9207 35.05 92.4687 31.1833 92.4687 31.1833C92.4687 31.1833 93.0001 26.6667 93.0001 22.1167V17.8667C93.0001 13.3333 92.4521 8.80001 92.4521 8.80001ZM49.7385 32.1667H46.0351V10.5H42.1325V6.96668H53.8239V10.5H49.7551V32.1667H49.7385ZM63.1073 32.1667H59.5866V30.1C58.258 31.6667 57.0955 32.4333 55.8832 32.4333C54.7871 32.4333 54.0564 31.9333 53.6578 30.9833C53.4585 30.4 53.2924 29.5167 53.2924 28.2V13.3333H56.8132V28.6167C56.8962 29.1167 57.1121 29.3167 57.5605 29.3167C58.2248 29.3167 58.8558 28.7 59.6032 27.65V13.3333H63.1073V32.1667ZM75.8948 26.5333C75.8948 28.2667 75.7785 29.5 75.5626 30.3C75.0976 31.7 74.1178 32.4167 72.7892 32.4167C71.5935 32.4167 70.3646 31.6833 69.2353 30.2833V32.1833H65.8807V6.96668H69.2021V15.1667C70.2982 13.8333 71.5271 13.05 72.7726 13.05C74.1012 13.05 74.998 13.8333 75.4298 15.2167C75.6789 16 75.8948 17.2167 75.8948 19V26.5333ZM83.3015 29.3167C84.1319 29.3167 84.6301 28.85 84.7962 27.9333C84.8294 27.7667 84.8294 26.9333 84.8294 25.5667H88.3501V26.1C88.3501 27.2 88.2671 27.9833 88.2339 28.3167C88.1176 29.0833 87.8519 29.7667 87.4533 30.3667C86.5233 31.7333 85.1283 32.4 83.3846 32.4C81.6408 32.4 80.3123 31.7667 79.3324 30.4667C78.6183 29.5167 78.1699 28.1333 78.1699 26.1333V19.5333C78.1699 17.5333 78.5851 15.9667 79.2992 15C80.2624 13.7167 81.6242 13.0333 83.3181 13.0333C85.0121 13.0333 86.3407 13.7 87.3039 15C87.9682 15.9667 88.3833 17.4333 88.3833 19.45V23.3333H81.7073V26.7C81.7073 28.45 82.2055 29.3167 83.3348 29.3167H83.3015Z" fill="#E62117"/>
</g>
<defs>
<clipPath id="clip0">
<rect width="93" height="40" fill="white"/>
</clipPath>
</defs>
</svg>
